<svg version="1" xmlns="http://www.w3.org/2000/svg" width="933.333" height="933.333" viewBox="0 0 700.000000 700.000000"><path d="M.6 86.2c1.8 3 17.6 27 51.9 78.8 20.3 30.5 43.2 65.2 51 77 7.8 11.8 28 42.4 45 68s38.1 57.5 47 71c8.9 13.5 26.4 40 39 59 77.2 116.5 92.3 139.3 103 155.7 6.6 10.1 12.2 18.3 12.5 18.3.3 0 9-13 19.4-28.8 22-33.2 106.1-160.5 163.1-246.5 14.3-21.5 37.8-57 52.1-78.7 14.4-21.7 42.7-64.5 62.9-95 33.6-50.7 49.9-75.5 51.9-78.8.6-.9-69.6-1.2-349.4-1.2C70.2 85 0 85.3.6 86.2zM302.3 126c.2.3-23.7 41.3-53.2 91.2l-53.6 90.7-38.5-58.2c-21.3-32-48.3-72.8-60.2-90.7-11.8-17.9-21.2-32.7-20.7-33 .9-.6 225.6-.6 226.2 0zm321.4.5c.2.6-13.1 21.2-29.5 46-48.4 73.2-85.9 129.8-87.9 132.7l-1.9 2.7-20.4-34.6c-11.3-19-21.6-36.4-22.9-38.7-5.6-9.8-61.3-104.1-62.7-106.1-.8-1.2-1.2-2.3-1-2.6 1-.9 226.1-.3 226.3.6zm-260.9 21.2c32.5 54.8 115.3 195.5 115.8 196.7.3.7-8.4 14.8-19.2 31.2-20.8 31.5-39.3 59.5-76.9 116.4-12.5 19-24.8 37.7-27.4 41.7-2.5 3.9-4.8 7.2-5.1 7.2-.3 0-9.8-14-21.1-31.2-11.4-17.1-34.5-52.1-51.4-77.6-47.3-71.6-57-86.5-56.8-87.1.2-.6 10.7-18.6 25.8-44 5.4-9.1 10.7-18.2 11.9-20.2 6.5-11.3 91.1-154.7 91.3-154.8.1 0 6 9.8 13.1 21.7z"/></svg>